<svg xmlns="http://www.w3.org/2000/svg" xmlns:xlink="http://www.w3.org/1999/xlink" width="500" zoomAndPan="magnify" viewBox="0 0 375 374.999991" height="500" preserveAspectRatio="xMidYMid meet" version="1.0"><rect x="-37.5" width="450" fill="#ffffff" y="-37.499999" height="449.999989" fill-opacity="1"/><path fill="#b8b8b8" d="M 32.066406 151.421875 L 61.480469 151.421875 L 61.480469 247.507812 L 32.066406 247.507812 Z M 32.066406 151.421875 " fill-opacity="1" fill-rule="evenodd"/><path fill="#b8b8b8" d="M 156.652344 173.554688 C 148.25 152.121094 128.359375 150.023438 117.996094 150.023438 C 110.429688 150.023438 99.367188 150.863281 90.402344 157.304688 C 84.097656 161.929688 78.078125 170.054688 78.078125 181.398438 C 78.078125 193.164062 84.519531 199.886719 89.703125 203.386719 C 94.324219 206.46875 102.171875 209.410156 107.351562 210.53125 L 117.996094 212.773438 C 123.460938 213.894531 129.34375 215.992188 129.34375 221.316406 C 129.34375 222.71875 128.78125 224.117188 127.242188 225.378906 C 124.71875 227.339844 120.941406 227.339844 118.417969 227.339844 C 115.195312 227.339844 111.414062 227.339844 107.492188 224.960938 C 105.25 223.699219 101.75 220.757812 100.488281 215.714844 L 73.011719 220.195312 C 74.578125 226.5 77.9375 232.660156 82.699219 237.28125 C 89.84375 244.148438 101.328125 248.933594 116.457031 248.933594 C 137.464844 248.933594 159.316406 239.105469 159.316406 216.554688 C 159.316406 207.867188 156.515625 200.304688 148.8125 194.5625 C 143.488281 190.5 136.347656 187.980469 127.101562 186.15625 L 116.734375 184.054688 C 113.515625 183.359375 107.210938 182.515625 107.210938 177.195312 C 107.210938 176.074219 107.492188 174.113281 109.449219 172.710938 C 110.710938 171.871094 112.8125 171.03125 116.734375 171.03125 C 121.777344 171.03125 126.117188 172.292969 128.640625 174.8125 C 130.179688 176.355469 131.582031 178.734375 132.28125 180.976562 Z M 156.652344 173.554688 " fill-opacity="1" fill-rule="evenodd"/><path fill="#b8b8b8" d="M 175.347656 151.421875 L 175.347656 247.507812 L 247.621094 247.507812 L 247.621094 224.539062 L 204.765625 224.539062 L 204.765625 208.851562 L 239.21875 208.851562 L 239.21875 188.121094 L 204.765625 188.121094 L 204.765625 173.835938 L 247.621094 173.835938 L 247.621094 151.421875 Z M 305.675781 150.023438 C 292.933594 150.023438 283.40625 153.945312 276.402344 159.6875 C 268.5625 166.132812 259.875 178.035156 259.875 199.464844 C 259.875 215.292969 264.5 228.042969 274.585938 237.5625 C 282.984375 245.546875 292.933594 248.933594 305.675781 248.933594 C 322.207031 248.933594 332.847656 242.464844 339.011719 235.882812 C 346.996094 227.335938 351.480469 214.03125 351.480469 199.464844 C 351.480469 181.675781 345.175781 168.652344 336.769531 161.085938 C 333.128906 157.867188 323.328125 150.023438 305.675781 150.023438 Z M 305.675781 171.035156 C 309.878906 171.035156 314.082031 173.132812 316.882812 178.878906 C 317.582031 180.277344 320.105469 185.882812 320.105469 198.90625 C 320.105469 212.074219 317.582031 217.957031 316.882812 219.355469 C 314.082031 225.378906 309.878906 227.339844 305.675781 227.339844 C 301.476562 227.339844 297.273438 225.378906 294.472656 219.355469 C 293.773438 217.957031 291.25 212.074219 291.25 198.90625 C 291.25 185.882812 293.773438 180.277344 294.472656 178.878906 C 297.273438 173.132812 301.476562 171.035156 305.675781 171.035156 Z M 305.675781 171.035156 " fill-opacity="1" fill-rule="evenodd"/><path fill="#b8b8b8" d="M 32.902344 119.335938 L 161.101562 119.335938 L 161.101562 140.394531 L 32.902344 140.394531 Z M 32.902344 119.335938 " fill-opacity="1" fill-rule="evenodd"/></svg>