<svg width="32" height="32" viewBox="0 0 32 32" fill="none" xmlns="http://www.w3.org/2000/svg">
<path fill-rule="evenodd" clip-rule="evenodd" d="M13.3002 11.4999C13.3002 10.0087 14.509 8.79995 16.0002 8.79995C17.4913 8.79995 18.7002 10.0087 18.7002 11.4999C18.7002 12.9911 17.4913 14.1999 16.0002 14.1999C14.509 14.1999 13.3002 12.9911 13.3002 11.4999ZM16.0002 7.19995C13.6253 7.19995 11.7002 9.12513 11.7002 11.4999C11.7002 13.8747 13.6253 15.7999 16.0002 15.7999C18.375 15.7999 20.3002 13.8747 20.3002 11.4999C20.3002 9.12513 18.375 7.19995 16.0002 7.19995ZM12.4871 17.8694C12.8513 17.6192 12.9437 17.1212 12.6936 16.757C12.4435 16.3928 11.9454 16.3003 11.5812 16.5505C10.5379 17.267 9.6849 18.2295 9.09585 19.3537C8.50688 20.4776 8.19954 21.7294 8.2002 22.9999V23.9999C8.2002 24.4417 8.55838 24.7999 9.0002 24.7999H23.0002C23.442 24.7999 23.8002 24.4417 23.8002 23.9999V23.0004C23.8009 21.7297 23.4935 20.4778 22.9045 19.3537C22.3155 18.2295 21.4624 17.267 20.4191 16.5505C20.0549 16.3003 19.5568 16.3928 19.3067 16.757C19.0566 17.1212 19.149 17.6192 19.5132 17.8694C20.3408 18.4377 21.0187 19.2021 21.4873 20.0963C21.9559 20.9906 22.2007 21.9872 22.2002 22.9994V23.1999H9.8002V22.9999C9.79961 21.9877 10.0444 20.9906 10.513 20.0963C10.9816 19.2021 11.6595 18.4377 12.4871 17.8694Z" fill="white"/>
</svg>
