<svg width="26" height="23" viewBox="0 0 26 23" fill="none" xmlns="http://www.w3.org/2000/svg">
<path d="M7.36307 0.0816736C6.02563 0.13917 5.11236 0.334657 4.31534 0.62118C3.47719 0.911681 2.71813 1.36553 2.09082 1.95126C1.45331 2.52681 0.960149 3.22228 0.645508 3.9895C0.336547 4.72162 0.126034 5.55915 0.0673834 6.7819C0.00873305 8.00466 -0.00488221 8.39946 0.00140176 11.5225C0.00768573 14.6455 0.0233956 15.0364 0.08833 16.263C0.152217 17.4867 0.364825 18.3224 0.677976 19.0526C1.00055 19.8086 1.43205 20.4488 2.13167 21.087C2.76131 21.6705 3.52216 22.1217 4.36143 22.4094C5.16054 22.6921 6.07486 22.8847 7.41229 22.9383C8.75078 22.992 9.18123 23.0045 12.5934 22.9987C16.0056 22.993 16.435 22.9786 17.7746 22.9201C19.1151 22.8626 20.0232 22.6662 20.8223 22.3806C21.6601 22.09 22.4188 21.6362 23.0458 21.0506C23.6835 20.4744 24.1767 19.7783 24.4911 19.0104C24.8 18.2792 25.0105 17.4427 25.0681 16.2199C25.1268 14.9933 25.1415 14.6004 25.1341 11.4784C25.1278 8.35634 25.1132 7.96441 25.0493 6.73782C24.9865 5.51124 24.7728 4.67946 24.4586 3.9483C24.1413 3.18184 23.6456 2.48767 23.006 1.91389C22.3766 1.33047 21.6161 0.879236 20.7772 0.591474C19.9771 0.309742 19.0638 0.116171 17.7253 0.0644248C16.3879 0.00980335 15.9574 -0.00457072 12.5442 0.00117891C9.13096 0.00692853 8.70365 0.0213026 7.36307 0.0816736ZM7.5097 20.8694C6.28432 20.8215 5.61927 20.6347 5.17625 20.4785C4.6295 20.2957 4.13478 20.0025 3.72884 19.6208C3.31027 19.251 2.98811 18.7997 2.78625 18.3003C2.61344 17.895 2.40607 17.2865 2.34951 16.1653C2.28667 14.954 2.2741 14.5899 2.26572 11.5196C2.25944 8.44929 2.27201 8.08611 2.32961 6.8739C2.38198 5.75368 2.58725 5.14422 2.75692 4.73887C2.98314 4.20128 3.2565 3.81893 3.69428 3.41454C4.09878 3.03144 4.59243 2.73666 5.13855 2.5521C5.58156 2.39398 6.24557 2.20616 7.47094 2.1525C8.79581 2.095 9.19275 2.0835 12.5484 2.07583C15.903 2.07009 16.301 2.08158 17.6279 2.13525C18.8512 2.18316 19.5173 2.36907 19.9603 2.52622C20.5468 2.73321 20.9658 2.9814 21.4077 3.38387C21.8497 3.78635 22.121 4.16678 22.3503 4.70437C22.5231 5.10876 22.7295 5.71631 22.7871 6.83844C22.8499 8.05065 22.8646 8.4148 22.8708 11.4841C22.8761 14.5535 22.8646 14.9176 22.807 16.1298C22.7535 17.251 22.5504 17.8595 22.3797 18.2668C22.1534 18.8034 21.8801 19.1867 21.4412 19.5892C21.037 19.9722 20.5438 20.2669 19.998 20.4516C19.5561 20.6097 18.89 20.7985 17.6667 20.8522C16.3408 20.9097 15.9438 20.9212 12.5871 20.9279C9.23045 20.9346 8.83561 20.9212 7.5097 20.8694ZM17.7557 5.35408C17.7561 5.62704 17.845 5.89376 18.0111 6.12049C18.1772 6.34723 18.4131 6.52379 18.6889 6.62785C18.9647 6.73192 19.268 6.7588 19.5605 6.70511C19.853 6.65141 20.1215 6.51955 20.3321 6.32621C20.5427 6.13286 20.6859 5.88671 20.7436 5.6189C20.8012 5.35109 20.7708 5.07364 20.6561 4.82166C20.5414 4.56967 20.3476 4.35447 20.0992 4.20328C19.8509 4.05208 19.559 3.97168 19.2607 3.97225C18.8609 3.97301 18.4778 4.119 18.1956 4.37811C17.9134 4.63723 17.7551 4.98827 17.7557 5.35408ZM6.1157 11.5119C6.11904 13.0779 6.80211 14.5785 8.01466 15.6836C9.22721 16.7887 10.8699 17.4079 12.5814 17.4048C14.2929 17.4018 15.9329 16.7768 17.1407 15.6673C18.3486 14.5579 19.0253 13.0549 19.0219 11.4889C18.9972 9.9359 18.3048 8.4543 17.0946 7.36512C15.8844 6.27594 14.2539 5.66689 12.5564 5.66991C10.8589 5.67294 9.23099 6.2878 8.02544 7.38128C6.8199 8.47477 6.13377 9.95882 6.1157 11.5119ZM8.37898 11.5081C8.37732 10.75 8.6214 10.0084 9.08035 9.37726C9.5393 8.74607 10.1925 8.25358 10.9574 7.96207C11.7222 7.67055 12.5644 7.5931 13.3774 7.73952C14.1903 7.88593 14.9376 8.24963 15.5246 8.78462C16.1117 9.31961 16.5122 10.0019 16.6755 10.7451C16.8387 11.4884 16.7574 12.2592 16.4419 12.9602C16.1264 13.6612 15.5907 14.2608 14.9027 14.6833C14.2147 15.1057 13.4052 15.332 12.5767 15.3335C12.0265 15.3345 11.4815 15.2364 10.9728 15.0447C10.4642 14.853 10.0017 14.5715 9.61192 14.2162C9.22213 13.861 8.91262 13.439 8.70107 12.9744C8.48952 12.5097 8.38008 12.0115 8.37898 11.5081Z" fill="white"/>
</svg>
